<svg width="24" height="25" viewBox="0 0 24 25" fill="none" xmlns="http://www.w3.org/2000/svg">
<mask id="mask0_3_506" style="mask-type:alpha" maskUnits="userSpaceOnUse" x="0" y="0" width="24" height="25">
<rect y="0.5" width="24" height="24" fill="#D9D9D9"/>
</mask>
<g mask="url(#mask0_3_506)">
<path d="M21.025 11.55V19.5C21.025 20.05 20.8291 20.5208 20.4375 20.9125C20.0458 21.3042 19.575 21.5 19.025 21.5H5.02497C4.47497 21.5 4.00413 21.3042 3.61247 20.9125C3.2208 20.5208 3.02497 20.05 3.02497 19.5V11.55C2.64163 11.2 2.3458 10.75 2.13747 10.2C1.92913 9.65 1.92497 9.05 2.12497 8.4L3.17497 5C3.3083 4.56667 3.5458 4.20833 3.88747 3.925C4.22913 3.64167 4.62497 3.5 5.07497 3.5H18.975C19.425 3.5 19.8166 3.6375 20.15 3.9125C20.4833 4.1875 20.725 4.55 20.875 5L21.925 8.4C22.125 9.05 22.1208 9.64167 21.9125 10.175C21.7041 10.7083 21.4083 11.1667 21.025 11.55ZM14.225 10.5C14.675 10.5 15.0166 10.3458 15.25 10.0375C15.4833 9.72917 15.575 9.38333 15.525 9L14.975 5.5H13.025V9.2C13.025 9.55 13.1416 9.85417 13.375 10.1125C13.6083 10.3708 13.8916 10.5 14.225 10.5ZM9.72497 10.5C10.1083 10.5 10.4208 10.3708 10.6625 10.1125C10.9041 9.85417 11.025 9.55 11.025 9.2V5.5H9.07497L8.52497 9C8.4583 9.4 8.5458 9.75 8.78747 10.05C9.02913 10.35 9.34163 10.5 9.72497 10.5ZM5.27497 10.5C5.57497 10.5 5.83747 10.3917 6.06247 10.175C6.28747 9.95833 6.42497 9.68333 6.47497 9.35L7.02497 5.5H5.07497L4.07497 8.85C3.97497 9.18333 4.02913 9.54167 4.23747 9.925C4.4458 10.3083 4.79163 10.5 5.27497 10.5ZM18.775 10.5C19.2583 10.5 19.6083 10.3083 19.825 9.925C20.0416 9.54167 20.0916 9.18333 19.975 8.85L18.925 5.5H17.025L17.575 9.35C17.625 9.68333 17.7625 9.95833 17.9875 10.175C18.2125 10.3917 18.475 10.5 18.775 10.5ZM5.02497 19.5H19.025V12.45C18.9416 12.4833 18.8875 12.5 18.8625 12.5H18.775C18.325 12.5 17.9291 12.425 17.5875 12.275C17.2458 12.125 16.9083 11.8833 16.575 11.55C16.275 11.85 15.9333 12.0833 15.55 12.25C15.1666 12.4167 14.7583 12.5 14.325 12.5C13.875 12.5 13.4541 12.4167 13.0625 12.25C12.6708 12.0833 12.325 11.85 12.025 11.55C11.7416 11.85 11.4125 12.0833 11.0375 12.25C10.6625 12.4167 10.2583 12.5 9.82497 12.5C9.34163 12.5 8.90413 12.4167 8.51247 12.25C8.1208 12.0833 7.77497 11.85 7.47497 11.55C7.12497 11.9 6.77913 12.1458 6.43747 12.2875C6.0958 12.4292 5.7083 12.5 5.27497 12.5H5.16247C5.1208 12.5 5.07497 12.4833 5.02497 12.45V19.5Z" fill="#E6D9B7"/>
</g>
</svg>
