<svg width="16" height="16" viewBox="0 0 16 16" fill="none" xmlns="http://www.w3.org/2000/svg">
<mask id="mask0_3_550" style="mask-type:alpha" maskUnits="userSpaceOnUse" x="0" y="0" width="16" height="16">
<rect width="16" height="16" fill="#D9D9D9"/>
</mask>
<g mask="url(#mask0_3_550)">
<path d="M1.59614 16.2272C1.10725 16.2272 0.68873 16.0531 0.340582 15.705C-0.00756653 15.3568 -0.181641 14.9383 -0.181641 14.4494V2.00495C-0.181641 1.51606 -0.00756653 1.09754 0.340582 0.749395C0.68873 0.401247 1.10725 0.227173 1.59614 0.227173H14.0406C14.5295 0.227173 14.948 0.401247 15.2961 0.749395C15.6443 1.09754 15.8184 1.51606 15.8184 2.00495V14.4494C15.8184 14.9383 15.6443 15.3568 15.2961 15.705C14.948 16.0531 14.5295 16.2272 14.0406 16.2272H1.59614ZM1.59614 14.4494H14.0406V2.00495H1.59614V14.4494Z" fill="#C3C3C3"/>
</g>
</svg>
